<svg width="65" height="65" viewBox="0 0 65 65" fill="none" xmlns="http://www.w3.org/2000/svg">
<rect width="65" height="65" fill="#E5E5E5"/>
<g filter="url(#filter0_d)">
<rect x="-592" y="-523" width="1440" height="768" fill="url(#paint0_linear)"/>
</g>
<g filter="url(#filter1_d)">
<rect x="-14" y="-334" width="300" height="300" rx="4" fill="white"/>
</g>
<rect width="65" height="65" rx="4" fill="#089C20"/>
<g filter="url(#filter2_d)">
<path d="M50.8292 30.2092H35.7906V15.1705C35.7906 14.4855 34.8604 13 32.9999 13C31.1395 13 30.2092 14.4855 30.2092 15.1705V30.2093H15.1705C14.4855 30.2092 13 31.1395 13 32.9998C13 34.8602 14.4855 35.7906 15.1705 35.7906H30.2093V50.8293C30.2093 51.5142 31.1395 52.9999 33 52.9999C34.8605 52.9999 35.7907 51.5142 35.7907 50.8293V35.7906H50.8295C51.5144 35.7906 53 34.8604 53 32.9998C53 31.1393 51.5142 30.2092 50.8292 30.2092Z" fill="white"/>
</g>
<defs>
<filter id="filter0_d" x="-596" y="-523" width="1448" height="776" filterUnits="userSpaceOnUse" color-interpolation-filters="sRGB">
<feFlood flood-opacity="0" result="BackgroundImageFix"/>
<feColorMatrix in="SourceAlpha" type="matrix" values="0 0 0 0 0 0 0 0 0 0 0 0 0 0 0 0 0 0 127 0"/>
<feOffset dy="4"/>
<feGaussianBlur stdDeviation="2"/>
<feColorMatrix type="matrix" values="0 0 0 0 0 0 0 0 0 0 0 0 0 0 0 0 0 0 0.25 0"/>
<feBlend mode="normal" in2="BackgroundImageFix" result="effect1_dropShadow"/>
<feBlend mode="normal" in="SourceGraphic" in2="effect1_dropShadow" result="shape"/>
</filter>
<filter id="filter1_d" x="-44" y="-364" width="400" height="400" filterUnits="userSpaceOnUse" color-interpolation-filters="sRGB">
<feFlood flood-opacity="0" result="BackgroundImageFix"/>
<feColorMatrix in="SourceAlpha" type="matrix" values="0 0 0 0 0 0 0 0 0 0 0 0 0 0 0 0 0 0 127 0"/>
<feOffset dx="20" dy="20"/>
<feGaussianBlur stdDeviation="25"/>
<feColorMatrix type="matrix" values="0 0 0 0 0 0 0 0 0 0 0 0 0 0 0 0 0 0 0.25 0"/>
<feBlend mode="normal" in2="BackgroundImageFix" result="effect1_dropShadow"/>
<feBlend mode="normal" in="SourceGraphic" in2="effect1_dropShadow" result="shape"/>
</filter>
<filter id="filter2_d" x="13" y="13" width="50" height="49.9999" filterUnits="userSpaceOnUse" color-interpolation-filters="sRGB">
<feFlood flood-opacity="0" result="BackgroundImageFix"/>
<feColorMatrix in="SourceAlpha" type="matrix" values="0 0 0 0 0 0 0 0 0 0 0 0 0 0 0 0 0 0 127 0"/>
<feOffset dx="5" dy="5"/>
<feGaussianBlur stdDeviation="2.5"/>
<feColorMatrix type="matrix" values="0 0 0 0 0 0 0 0 0 0 0 0 0 0 0 0 0 0 0.25 0"/>
<feBlend mode="normal" in2="BackgroundImageFix" result="effect1_dropShadow"/>
<feBlend mode="normal" in="SourceGraphic" in2="effect1_dropShadow" result="shape"/>
</filter>
<linearGradient id="paint0_linear" x1="128" y1="-523" x2="128" y2="245" gradientUnits="userSpaceOnUse">
<stop stop-color="#0837B0"/>
<stop offset="1" stop-color="#021E66"/>
</linearGradient>
</defs>
</svg>
