<svg width="65" height="65" viewBox="0 0 65 65" fill="none" xmlns="http://www.w3.org/2000/svg">
<rect width="65" height="65" fill="#E5E5E5"/>
<g filter="url(#filter0_d)">
<rect x="-799" y="-523" width="1440" height="768" fill="url(#paint0_linear)"/>
</g>
<g filter="url(#filter1_d)">
<rect x="-221" y="-334" width="300" height="300" rx="4" fill="white"/>
</g>
<rect width="65" height="65" rx="4" fill="#CF1C1C"/>
<g filter="url(#filter2_d)">
<path d="M52.5056 15.1609C52.176 14.8314 51.7852 14.6661 51.3337 14.6661C50.8824 14.6661 50.4922 14.8314 50.1619 15.1609L46.7767 18.5208C44.9191 16.7671 42.7921 15.4083 40.3964 14.445C38.001 13.4816 35.535 12.9999 33.0001 12.9999C28.2256 12.9999 24.0592 14.445 20.5 17.3359C16.9407 20.2264 14.5971 23.9977 13.4686 28.6508V28.833C13.4686 29.0587 13.5509 29.2541 13.7159 29.4189C13.8809 29.5839 14.0761 29.6662 14.3018 29.6662H19.484C19.8661 29.6662 20.1264 29.4665 20.2654 29.0674C20.9945 27.3314 21.4544 26.3159 21.6455 26.0206C22.8607 24.0414 24.4753 22.4875 26.4893 21.359C28.5035 20.2306 30.6735 19.6661 32.9998 19.6661C36.4897 19.6661 39.5191 20.8555 42.0888 23.234L38.4944 26.8276C38.1654 27.1575 37.9999 27.5483 37.9999 27.9998C37.9999 28.4511 38.1653 28.8418 38.4944 29.1716C38.8247 29.5015 39.2155 29.6663 39.6669 29.6663H51.3337C51.7851 29.6663 52.1759 29.5015 52.5056 29.1716C52.8352 28.8418 53 28.4512 53 27.9998V16.3328C53 15.8814 52.8362 15.4909 52.5056 15.1609Z" fill="white"/>
<path d="M51.5154 36.3334H46.5154C46.1334 36.3334 45.873 36.5329 45.7344 36.9323C45.0056 38.6685 44.5452 39.6836 44.3545 39.9789C43.1389 41.9576 41.5243 43.5121 39.5108 44.6405C37.4965 45.7693 35.3265 46.3331 33.0001 46.3331C31.3162 46.3331 29.6928 46.0208 28.1305 45.396C26.568 44.7705 25.1702 43.8849 23.9377 42.739L27.5056 39.1714C27.8353 38.8418 28.0003 38.4507 28.0003 37.9996C28.0003 37.5482 27.8353 37.1571 27.5056 36.8277C27.1757 36.4975 26.7852 36.3323 26.3338 36.3323H14.6668C14.2152 36.3323 13.8245 36.4975 13.4947 36.8277C13.1648 37.1572 13 37.5483 13 37.9996L13 49.6666C13 50.1176 13.1648 50.5087 13.4947 50.8384C13.8248 51.1677 14.2155 51.3335 14.6669 51.3335C15.1183 51.3335 15.5088 51.1678 15.8388 50.8384L19.1981 47.4787C21.0558 49.2492 23.1697 50.6124 25.5396 51.5672C27.9094 52.5224 30.3617 52.9994 32.8962 52.9994C37.6535 52.9994 41.8027 51.5541 45.3443 48.6636C48.886 45.7732 51.2124 42.0011 52.324 37.3485C52.3414 37.3138 52.3496 37.253 52.3496 37.1665C52.3496 36.9405 52.2669 36.7458 52.102 36.5803C51.9369 36.4162 51.7414 36.3334 51.5154 36.3334Z" fill="white"/>
</g>
<defs>
<filter id="filter0_d" x="-803" y="-523" width="1448" height="776" filterUnits="userSpaceOnUse" color-interpolation-filters="sRGB">
<feFlood flood-opacity="0" result="BackgroundImageFix"/>
<feColorMatrix in="SourceAlpha" type="matrix" values="0 0 0 0 0 0 0 0 0 0 0 0 0 0 0 0 0 0 127 0"/>
<feOffset dy="4"/>
<feGaussianBlur stdDeviation="2"/>
<feColorMatrix type="matrix" values="0 0 0 0 0 0 0 0 0 0 0 0 0 0 0 0 0 0 0.25 0"/>
<feBlend mode="normal" in2="BackgroundImageFix" result="effect1_dropShadow"/>
<feBlend mode="normal" in="SourceGraphic" in2="effect1_dropShadow" result="shape"/>
</filter>
<filter id="filter1_d" x="-251" y="-364" width="400" height="400" filterUnits="userSpaceOnUse" color-interpolation-filters="sRGB">
<feFlood flood-opacity="0" result="BackgroundImageFix"/>
<feColorMatrix in="SourceAlpha" type="matrix" values="0 0 0 0 0 0 0 0 0 0 0 0 0 0 0 0 0 0 127 0"/>
<feOffset dx="20" dy="20"/>
<feGaussianBlur stdDeviation="25"/>
<feColorMatrix type="matrix" values="0 0 0 0 0 0 0 0 0 0 0 0 0 0 0 0 0 0 0.25 0"/>
<feBlend mode="normal" in2="BackgroundImageFix" result="effect1_dropShadow"/>
<feBlend mode="normal" in="SourceGraphic" in2="effect1_dropShadow" result="shape"/>
</filter>
<filter id="filter2_d" x="13" y="12.9999" width="50" height="49.9994" filterUnits="userSpaceOnUse" color-interpolation-filters="sRGB">
<feFlood flood-opacity="0" result="BackgroundImageFix"/>
<feColorMatrix in="SourceAlpha" type="matrix" values="0 0 0 0 0 0 0 0 0 0 0 0 0 0 0 0 0 0 127 0"/>
<feOffset dx="5" dy="5"/>
<feGaussianBlur stdDeviation="2.5"/>
<feColorMatrix type="matrix" values="0 0 0 0 0 0 0 0 0 0 0 0 0 0 0 0 0 0 0.25 0"/>
<feBlend mode="normal" in2="BackgroundImageFix" result="effect1_dropShadow"/>
<feBlend mode="normal" in="SourceGraphic" in2="effect1_dropShadow" result="shape"/>
</filter>
<linearGradient id="paint0_linear" x1="-79" y1="-523" x2="-79" y2="245" gradientUnits="userSpaceOnUse">
<stop stop-color="#0837B0"/>
<stop offset="1" stop-color="#021E66"/>
</linearGradient>
</defs>
</svg>
